<?xml version="1.0" encoding="UTF-8" standalone="no"?>
<!-- Created with Inkscape (http://www.inkscape.org/) -->
<svg
   xmlns:dc="http://purl.org/dc/elements/1.1/"
   xmlns:cc="http://creativecommons.org/ns#"
   xmlns:rdf="http://www.w3.org/1999/02/22-rdf-syntax-ns#"
   xmlns:svg="http://www.w3.org/2000/svg"
   xmlns="http://www.w3.org/2000/svg"
   xmlns:sodipodi="http://sodipodi.sourceforge.net/DTD/sodipodi-0.dtd"
   xmlns:inkscape="http://www.inkscape.org/namespaces/inkscape"
   version="1.0"
   width="256"
   height="67.37912"
   id="svg2508"
   sodipodi:version="0.32"
   inkscape:version="0.46"
   sodipodi:docname="FamilyMart_logo.svg"
   inkscape:output_extension="org.inkscape.output.svg.inkscape">
  <metadata
     id="metadata22">
    <rdf:RDF>
      <cc:Work
         rdf:about="">
        <dc:format>image/svg+xml</dc:format>
        <dc:type
           rdf:resource="http://purl.org/dc/dcmitype/StillImage" />
      </cc:Work>
    </rdf:RDF>
  </metadata>
  <sodipodi:namedview
     inkscape:window-height="712"
     inkscape:window-width="1024"
     inkscape:pageshadow="2"
     inkscape:pageopacity="0.0"
     guidetolerance="10.0"
     gridtolerance="10.0"
     objecttolerance="10.0"
     borderopacity="1.0"
     bordercolor="#666666"
     pagecolor="#ffffff"
     id="base"
     showgrid="false"
     inkscape:zoom="3.625"
     inkscape:cx="128"
     inkscape:cy="33.68956"
     inkscape:window-x="-4"
     inkscape:window-y="-4"
     inkscape:current-layer="svg2508" />
  <defs
     id="defs2510">
    <inkscape:perspective
       sodipodi:type="inkscape:persp3d"
       inkscape:vp_x="0 : 26.319969 : 1"
       inkscape:vp_y="0 : 1000 : 0"
       inkscape:vp_z="200 : 26.319969 : 1"
       inkscape:persp3d-origin="100 : 17.546646 : 1"
       id="perspective24" />
    <clipPath
       id="clipPath7642">
      <path
         d="M 415.3,483.34 L 540,483.34 L 540,538.19 L 415.3,538.19 L 415.3,483.34 z"
         id="path7644" />
    </clipPath>
  </defs>
  <g
     id="g3226"
     transform="translate(15.839494,16.239189)">
    <rect
       y="-16.239128"
       x="-15.839494"
       height="67.378998"
       width="256"
       id="rect2454"
       style="opacity:1;fill:#ffffff;fill-opacity:1;fill-rule:nonzero;stroke:none;stroke-width:2.40924835;stroke-linecap:round;stroke-linejoin:round;stroke-miterlimit:4;stroke-dasharray:none;stroke-dashoffset:0;stroke-opacity:1" />
    <g
       id="layer1"
       transform="matrix(1.3473684,0,0,1.3473684,-548.40516,-547.01218)">
      <g
         id="g8699"
         transform="matrix(1.2894294,0,0,-1.2894294,-118.24651,480.6975)">
        <path
           style="fill:#0994dd;fill-opacity:1;fill-rule:nonzero;stroke:none"
           id="path8279"
           d="M 414.924,53.7 L 414.924,35.487 L 418.63,35.487 L 418.63,43.448 L 426.333,43.448 L 426.333,46.971 L 418.63,46.971 L 418.63,50.184 L 426.466,50.184 L 426.466,53.7 L 414.924,53.7" />
        <path
           style="fill:#0994dd;fill-opacity:1;fill-rule:nonzero;stroke:none"
           id="path8281"
           d="M 437.24,38.097 C 437.24,39.601 437.24,42.481 437.24,44.024 C 437.24,45.982 436.232,48.455 431.953,48.455 C 430.265,48.455 428.898,48.079 427.971,47.706 L 427.971,44.479 C 429.031,45.134 430.202,45.487 431.478,45.487 C 432.634,45.487 433.784,45.096 433.784,43.74 C 433.784,43.709 433.784,43.684 433.784,43.653 C 433.216,43.854 432.494,43.991 431.745,43.991 C 428.83,43.991 426.684,42.463 426.684,39.467 C 426.684,36.519 429.091,35.406 431.021,35.406 C 432.226,35.406 433.266,35.796 433.936,36.338 C 434.006,35.956 434.105,35.648 434.22,35.487 L 438.027,35.487 C 437.568,35.856 437.24,36.595 437.24,38.097 z M 430.155,39.854 C 430.155,40.859 431.021,41.538 432.259,41.538 C 432.888,41.538 433.391,41.394 433.784,41.182 C 433.784,40.408 433.784,39.617 433.784,39.013 C 433.433,38.701 432.833,38.325 431.946,38.325 C 430.807,38.325 430.155,38.973 430.155,39.854" />
        <path
           style="fill:#0994dd;fill-opacity:1;fill-rule:nonzero;stroke:none"
           id="path8283"
           d="M 512.434,38.097 C 512.434,39.601 512.434,42.481 512.434,44.024 C 512.434,45.982 511.428,48.455 507.15,48.455 C 505.458,48.455 504.089,48.079 503.164,47.706 L 503.164,44.479 C 504.225,45.134 505.399,45.487 506.675,45.487 C 507.828,45.487 508.972,45.096 508.972,43.74 C 508.972,43.709 508.972,43.684 508.972,43.653 C 508.408,43.854 507.685,43.991 506.94,43.991 C 504.02,43.991 501.877,42.463 501.877,39.47 C 501.877,36.519 504.283,35.406 506.214,35.406 C 507.419,35.406 508.46,35.796 509.13,36.338 C 509.203,35.956 509.297,35.648 509.413,35.487 L 513.22,35.487 C 512.765,35.856 512.434,36.595 512.434,38.097 z M 505.349,39.854 C 505.349,40.859 506.214,41.538 507.453,41.538 C 508.081,41.538 508.581,41.394 508.972,41.182 C 508.972,40.408 508.972,39.617 508.972,39.013 C 508.623,38.701 508.033,38.328 507.14,38.328 C 505.997,38.328 505.349,38.973 505.349,39.854" />
        <path
           style="fill:#0994dd;fill-opacity:1;fill-rule:nonzero;stroke:none"
           id="path8285"
           d="M 452.614,48.328 C 451.11,48.328 450.009,47.967 448.975,46.865 C 448.245,47.785 447.105,48.328 445.717,48.328 C 444.581,48.328 443.517,47.995 442.55,47.152 L 442.55,48.203 L 439.32,48.203 L 439.32,35.487 L 442.797,35.487 L 442.797,44.057 C 443.214,44.575 443.808,45.014 444.629,45.014 C 445.678,45.014 446.272,44.297 446.272,43 L 446.272,35.487 L 449.821,35.487 L 449.821,44.148 C 450.221,44.656 450.804,45.014 451.627,45.014 C 452.754,45.014 453.271,44.211 453.271,43 L 453.271,35.487 L 456.818,35.487 L 456.818,44.297 C 456.818,46.685 455.29,48.328 452.614,48.328" />
        <path
           style="fill:#0994dd;fill-opacity:1;fill-rule:nonzero;stroke:none"
           id="path8287"
           d="M 464.981,53.7 L 468.457,53.7 L 468.457,35.487 L 464.981,35.487 L 464.981,53.7 z" />
        <path
           style="fill:#0994dd;fill-opacity:1;fill-rule:nonzero;stroke:none"
           id="path8289"
           d="M 491.937,48.038 L 487.334,53.7 L 483.526,53.7 L 483.526,35.487 L 487.334,35.487 L 487.334,48.038 L 491.937,41.945 L 496.536,48.038 L 496.536,35.487 L 500.343,35.487 L 500.343,53.7 L 496.536,53.7 L 491.937,48.038" />
        <path
           style="fill:#0994dd;fill-opacity:1;fill-rule:nonzero;stroke:none"
           id="path8291"
           d="M 459.114,48.203 L 462.595,48.203 L 462.595,35.487 L 459.114,35.487 L 459.114,48.203 z" />
        <path
           style="fill:#0994dd;fill-opacity:1;fill-rule:nonzero;stroke:none"
           id="path8293"
           d="M 460.852,53.977 C 459.604,53.977 458.595,52.966 458.595,51.724 C 458.595,50.471 459.604,49.463 460.852,49.463 C 462.101,49.463 463.113,50.471 463.113,51.724 C 463.113,52.966 462.101,53.977 460.852,53.977" />
        <path
           style="fill:#0994dd;fill-opacity:1;fill-rule:nonzero;stroke:none"
           id="path8295"
           d="M 517.685,46.865 L 517.685,48.203 L 514.36,48.203 L 514.36,35.487 L 517.837,35.487 L 517.837,43.474 C 518.34,44.121 519.159,44.705 520.336,44.705 C 521.252,44.705 521.917,44.345 522.294,44.071 L 522.294,47.893 C 521.869,48.203 521.175,48.358 520.602,48.358 C 519.614,48.358 518.53,47.982 517.685,46.865" />
        <path
           style="fill:#0994dd;fill-opacity:1;fill-rule:nonzero;stroke:none"
           id="path8297"
           d="M 529.765,38.735 C 528.662,38.735 528.243,39.588 528.243,40.532 L 528.243,44.87 L 531.208,44.87 L 531.208,48.203 L 528.243,48.203 L 528.243,53.005 L 524.811,51.544 L 524.811,48.203 L 522.936,48.203 L 522.936,44.87 L 524.811,44.87 L 524.811,40.027 C 524.811,37.386 525.865,35.349 528.968,35.349 C 529.895,35.349 530.713,35.487 531.252,35.702 L 531.252,39.22 C 530.99,38.927 530.512,38.735 529.765,38.735" />
        <path
           style="fill:#0994dd;fill-opacity:1;fill-rule:nonzero;stroke:none"
           id="path8299"
           d="M 472.656,32.19 L 476.566,32.19 L 482.433,48.203 L 478.623,48.203 L 476.206,41.334 L 473.581,48.203 L 469.607,48.203 L 474.401,36.673 L 472.656,32.19" />
        <path
           style="fill:#19ae48;fill-opacity:1;fill-rule:nonzero;stroke:none"
           id="path8301"
           d="M 398.246,67.289 L 545.598,67.289 L 545.598,57.59 L 398.246,57.59 L 398.246,67.289 z" />
        <path
           style="fill:#0994dd;fill-opacity:1;fill-rule:nonzero;stroke:none"
           id="path8303"
           d="M 398.246,31.612 L 545.598,31.612 L 545.598,28.506 L 398.246,28.506 L 398.246,31.612 z" />
      </g>
    </g>
  </g>
</svg>
